<?xml version="1.0" standalone="no"?>
<!DOCTYPE svg PUBLIC "-//W3C//DTD SVG 20010904//EN"
 "http://www.w3.org/TR/2001/REC-SVG-20010904/DTD/svg10.dtd">
<svg version="1.0" xmlns="http://www.w3.org/2000/svg"
 width="529.000000pt" height="529.000000pt" viewBox="0 0 529.000000 529.000000"
 preserveAspectRatio="xMidYMid meet">
<metadata>
Created by potrace 1.14, written by Peter Selinger 2001-2017
</metadata>
<g transform="translate(0.000000,529.000000) scale(0.100000,-0.100000)"
fill="#000000" stroke="none">
<path d="M2610 5250 c-8 -5 -25 -10 -38 -10 -12 0 -30 -4 -40 -9 -29 -16 -124
-51 -136 -51 -7 0 -29 -9 -51 -20 -22 -11 -45 -20 -52 -20 -7 0 -27 -9 -45
-20 -18 -11 -43 -20 -55 -20 -13 0 -23 -4 -23 -9 0 -5 -20 -15 -45 -22 -25 -7
-45 -17 -45 -21 0 -4 -6 -8 -14 -8 -12 0 -106 -43 -166 -76 -14 -8 -50 -26
-80 -41 -30 -15 -57 -30 -60 -33 -3 -3 -27 -16 -55 -30 -27 -14 -51 -28 -53
-32 -2 -5 -8 -8 -12 -8 -5 0 -26 -12 -47 -26 -21 -14 -52 -32 -70 -41 -18 -8
-33 -19 -33 -24 0 -5 -7 -9 -15 -9 -9 0 -25 -9 -37 -20 -12 -11 -28 -20 -35
-20 -7 0 -13 -3 -13 -8 0 -4 -18 -18 -40 -32 -22 -14 -40 -28 -40 -32 0 -5 -7
-8 -15 -8 -8 0 -15 -4 -15 -10 0 -5 -6 -10 -13 -10 -7 0 -18 -9 -25 -20 -7
-11 -19 -20 -27 -20 -8 0 -15 -4 -15 -10 0 -5 -7 -10 -15 -10 -8 0 -15 -4 -15
-10 0 -5 -7 -10 -15 -10 -8 0 -15 -4 -15 -10 0 -5 -21 -24 -47 -42 -27 -17
-53 -37 -59 -43 -6 -5 -29 -23 -50 -40 -21 -16 -51 -42 -66 -57 -15 -16 -30
-28 -33 -28 -7 0 -85 -74 -269 -257 -90 -90 -169 -163 -176 -163 -6 0 -9 -4
-6 -8 2 -4 -11 -25 -31 -47 -19 -22 -46 -55 -60 -72 -14 -18 -32 -33 -39 -33
-8 0 -14 -6 -14 -13 0 -7 -21 -35 -47 -62 -27 -28 -49 -55 -51 -60 -2 -6 -22
-32 -45 -59 -23 -26 -53 -65 -67 -85 -14 -20 -31 -42 -37 -49 -7 -7 -13 -18
-13 -23 0 -5 -7 -9 -15 -9 -22 0 -20 -105 10 -371 43 -389 77 -561 208 -1064
13 -50 29 -100 35 -111 6 -12 16 -39 21 -60 5 -22 28 -91 51 -154 23 -63 50
-140 60 -171 10 -30 31 -84 48 -120 82 -179 93 -205 94 -214 0 -5 9 -21 19
-34 11 -13 19 -28 19 -33 0 -16 62 -143 72 -146 4 -2 8 -12 8 -21 0 -10 9 -28
20 -41 19 -22 24 -35 21 -52 0 -5 3 -8 7 -8 5 0 21 -27 37 -60 16 -33 32 -60
35 -60 3 0 19 -27 35 -60 16 -33 32 -60 35 -60 4 0 15 -18 26 -40 10 -22 22
-40 25 -40 4 0 12 -14 19 -30 7 -16 15 -30 19 -30 4 0 15 -17 26 -37 11 -21
27 -45 35 -54 22 -23 79 -49 108 -49 14 0 39 -4 56 -9 45 -14 104 -28 166 -40
30 -6 91 -18 135 -27 44 -9 98 -18 120 -20 22 -3 49 -7 60 -10 46 -12 185 -29
460 -56 176 -17 895 -17 1075 0 296 28 459 50 615 81 28 6 75 14 105 20 30 5
62 12 70 15 15 5 56 13 118 23 18 3 35 9 38 14 3 5 18 9 35 9 56 0 105 22 130
60 13 19 28 40 34 47 5 7 15 18 21 26 7 8 23 34 36 58 13 24 44 77 68 117 63
104 102 173 156 276 25 49 52 96 60 103 8 8 14 23 14 32 0 10 6 24 14 30 7 6
16 24 19 40 3 16 12 35 19 43 7 7 14 18 15 23 6 27 57 141 65 146 5 3 8 8 6
11 -1 3 7 27 18 54 33 75 59 138 59 144 1 11 28 86 35 95 3 6 12 30 19 55 7
25 19 59 25 75 30 72 91 273 137 455 27 109 69 297 83 380 9 52 21 118 26 145
19 103 57 433 66 572 7 107 5 114 -42 170 -11 11 -26 31 -34 43 -8 12 -21 29
-28 36 -7 8 -11 14 -9 14 2 0 -14 20 -37 44 -53 57 -65 72 -100 121 -16 22
-43 54 -60 71 -17 17 -56 59 -86 93 -59 67 -389 401 -396 401 -7 0 -47 35 -99
88 -29 28 -55 52 -58 52 -8 0 -40 25 -74 58 -13 12 -28 22 -33 22 -6 0 -15 9
-22 20 -7 11 -18 20 -25 20 -6 0 -18 8 -25 18 -7 9 -25 23 -40 31 -16 8 -28
18 -28 23 0 4 -4 8 -10 8 -9 0 -35 19 -65 48 -8 6 -18 12 -24 12 -6 0 -11 5
-11 10 0 6 -7 10 -16 10 -8 0 -12 5 -9 10 3 6 0 10 -8 10 -7 0 -23 9 -35 20
-12 11 -27 20 -35 20 -8 0 -22 9 -32 20 -10 11 -22 20 -27 20 -5 0 -31 15 -59
34 -27 19 -58 38 -69 41 -11 4 -17 11 -14 17 4 6 2 8 -4 4 -6 -3 -17 1 -25 9
-9 8 -21 15 -27 15 -7 0 -24 8 -38 18 -15 10 -57 33 -94 51 -37 19 -75 42 -84
52 -9 11 -24 19 -33 19 -9 0 -43 13 -76 30 -33 16 -66 30 -72 30 -7 0 -13 5
-13 10 0 6 -7 10 -15 10 -8 0 -37 10 -63 21 -67 31 -134 60 -157 69 -11 4 -31
12 -45 18 -14 6 -34 12 -45 15 -11 3 -65 21 -120 41 -105 38 -130 42 -155 26z"/>
</g>
</svg>
